<svg xmlns="http://www.w3.org/2000/svg" xmlns:xlink="http://www.w3.org/1999/xlink" width="500" zoomAndPan="magnify" viewBox="0 0 375 374.999991" height="500" preserveAspectRatio="xMidYMid meet" version="1.0"><defs><g/><clipPath id="bbc2617ba7"><path d="M 65.507812 65.507812 L 309.257812 65.507812 L 309.257812 309.257812 L 65.507812 309.257812 Z M 65.507812 65.507812 " clip-rule="nonzero"/></clipPath><clipPath id="0fef4173da"><path d="M 187.382812 65.507812 C 120.070312 65.507812 65.507812 120.070312 65.507812 187.382812 C 65.507812 254.691406 120.070312 309.257812 187.382812 309.257812 C 254.691406 309.257812 309.257812 254.691406 309.257812 187.382812 C 309.257812 120.070312 254.691406 65.507812 187.382812 65.507812 " clip-rule="nonzero"/></clipPath><clipPath id="80d57b63f8"><path d="M 185 142.632812 L 227.820312 142.632812 L 227.820312 232.632812 L 185 232.632812 Z M 185 142.632812 " clip-rule="nonzero"/></clipPath><clipPath id="405c3b62e6"><path d="M 147.046875 205 L 207 205 L 207 222.632812 L 147.046875 222.632812 Z M 147.046875 205 " clip-rule="nonzero"/></clipPath></defs><g clip-path="url(#bbc2617ba7)"><g clip-path="url(#0fef4173da)"><path stroke-linecap="butt" transform="matrix(0.749279, 0, 0, 0.749279, 65.506107, 65.506102)" fill="none" stroke-linejoin="miter" d="M 162.658536 0.00228273 C 72.822233 0.00228273 0.00227672 72.822239 0.00227672 162.658542 C 0.00227672 252.489632 72.822233 325.314802 162.658536 325.314802 C 252.489626 325.314802 325.314796 252.489632 325.314796 162.658542 C 325.314796 72.822239 252.489626 0.00228273 162.658536 0.00228273 " stroke="#000000" stroke-width="2" stroke-opacity="1" stroke-miterlimit="4"/></g></g><g clip-path="url(#80d57b63f8)"><path fill="#545454" d="M 185.335938 149.15625 C 186.957031 148.953125 188.523438 148.238281 189.75 147.121094 C 190.972656 146.011719 191.882812 144.597656 193.191406 143.777344 C 193.832031 143.367188 194.59375 143.171875 195.316406 143.28125 C 196.042969 143.382812 196.730469 143.75 197.277344 144.269531 C 198.390625 145.3125 199.050781 146.8125 199.140625 148.34375 C 199.261719 149.898438 199.011719 151.488281 198.816406 153.113281 C 198.71875 153.921875 198.640625 154.746094 198.628906 155.589844 C 198.628906 156.417969 198.6875 157.367188 199.226562 158.195312 C 199.78125 159 200.550781 159.410156 201.007812 159.949219 C 201.492188 160.46875 201.789062 161.160156 201.972656 161.890625 C 202.34375 163.359375 202.285156 165.007812 202.347656 166.625 C 202.390625 169.84375 202.328125 173.09375 201.347656 176.125 C 200.402344 179.179688 198.234375 181.675781 195.859375 183.839844 C 193.488281 186.023438 190.828125 188 188.882812 190.65625 C 187.890625 191.957031 187.058594 193.398438 186.539062 194.96875 C 186.292969 195.757812 186.132812 196.574219 186.074219 197.40625 C 186.027344 198.238281 186.117188 199.070312 186.292969 199.886719 L 186.6875 199.722656 C 185.921875 198.414062 186.195312 196.792969 186.84375 195.4375 C 187.5 194.058594 188.449219 192.839844 189.460938 191.652344 L 192.464844 188.050781 C 192.964844 187.457031 193.46875 186.886719 194.054688 186.492188 C 194.640625 186.09375 195.316406 185.929688 196.007812 185.988281 C 197.402344 186.097656 198.625 187.171875 198.742188 188.546875 C 198.820312 189.21875 198.695312 189.921875 198.367188 190.5 C 198.046875 191.078125 197.496094 191.488281 196.835938 191.878906 C 196.191406 192.257812 195.433594 192.671875 194.824219 193.285156 C 194.203125 193.875 193.722656 194.597656 193.378906 195.367188 C 192.683594 196.914062 192.558594 198.722656 193.125 200.363281 L 193.601562 199.601562 L 190.105469 199.949219 L 189.316406 200.019531 L 189.621094 200.753906 C 191.273438 204.757812 193.4375 208.542969 196.007812 212.019531 C 198.5625 215.507812 201.585938 218.636719 204.894531 221.394531 C 208.207031 224.148438 211.832031 226.527344 215.675781 228.445312 C 219.511719 230.382812 223.617188 231.777344 227.796875 232.667969 L 227.820312 232.5625 C 223.683594 231.496094 219.71875 229.878906 215.953125 227.90625 C 212.191406 225.921875 208.675781 223.492188 205.484375 220.703125 C 202.28125 217.914062 199.429688 214.753906 196.914062 211.351562 C 194.410156 207.933594 192.3125 204.222656 190.707031 200.308594 L 190.226562 201.121094 L 193.71875 200.738281 L 194.4375 200.660156 L 194.195312 199.972656 C 193.71875 198.65625 193.796875 197.121094 194.375 195.8125 C 194.660156 195.152344 195.058594 194.542969 195.566406 194.046875 C 196.0625 193.542969 196.679688 193.183594 197.378906 192.769531 C 198.050781 192.359375 198.8125 191.808594 199.25 190.996094 C 199.683594 190.207031 199.839844 189.292969 199.714844 188.414062 C 199.59375 187.539062 199.152344 186.679688 198.472656 186.097656 C 197.800781 185.511719 196.945312 185.175781 196.074219 185.121094 C 195.214844 185.050781 194.285156 185.308594 193.59375 185.816406 C 192.890625 186.3125 192.367188 186.953125 191.878906 187.566406 L 188.953125 191.238281 C 187.96875 192.449219 187 193.742188 186.351562 195.210938 C 186.027344 195.949219 185.789062 196.738281 185.742188 197.566406 C 185.699219 198.386719 185.886719 199.234375 186.316406 199.941406 L 187.050781 201.148438 L 186.710938 199.777344 C 186.519531 199.015625 186.441406 198.21875 186.46875 197.425781 C 186.519531 196.636719 186.667969 195.851562 186.902344 195.085938 C 187.390625 193.5625 188.1875 192.144531 189.148438 190.859375 C 191.09375 188.273438 193.730469 186.339844 196.164062 184.183594 C 197.394531 183.117188 198.582031 181.980469 199.621094 180.695312 C 200.652344 179.40625 201.5 177.941406 202.058594 176.371094 C 203.191406 173.222656 203.335938 169.859375 203.300781 166.609375 C 203.25 164.988281 203.339844 163.347656 202.941406 161.644531 C 202.722656 160.8125 202.351562 159.957031 201.722656 159.289062 C 201.097656 158.621094 200.375 158.222656 200.011719 157.667969 C 199.640625 157.125 199.542969 156.367188 199.542969 155.589844 C 199.542969 154.804688 199.609375 154.011719 199.695312 153.210938 C 199.871094 151.609375 200.117188 149.960938 199.964844 148.269531 C 199.816406 146.5625 199.039062 144.894531 197.738281 143.753906 C 197.097656 143.175781 196.277344 142.757812 195.390625 142.65625 C 194.507812 142.554688 193.601562 142.824219 192.890625 143.308594 C 191.449219 144.28125 190.652344 145.757812 189.515625 146.875 C 188.390625 147.996094 186.910156 148.769531 185.320312 149.042969 L 185.335938 149.15625 " fill-opacity="1" fill-rule="nonzero"/></g><path fill="#545454" d="M 183.359375 194.570312 C 183.738281 193.160156 183.566406 191.617188 183.140625 190.230469 C 182.71875 188.832031 182.121094 187.519531 181.527344 186.25 C 180.914062 184.992188 180.320312 183.714844 180.125 182.316406 C 179.929688 180.921875 180.050781 179.492188 179.925781 178.035156 C 179.855469 176.5625 179.199219 175.078125 178.332031 173.914062 C 177.484375 172.726562 176.542969 171.65625 175.835938 170.535156 C 175.128906 169.414062 174.757812 168.171875 175.0625 166.867188 C 175.335938 165.570312 175.984375 164.285156 176.714844 163.074219 L 176.628906 163 C 175.601562 164.003906 174.726562 165.199219 174.222656 166.644531 C 173.984375 167.367188 173.910156 168.179688 174.023438 168.964844 C 174.125 169.757812 174.449219 170.488281 174.828125 171.144531 C 175.613281 172.449219 176.644531 173.457031 177.5 174.542969 C 178.367188 175.625 179.039062 176.757812 179.328125 178.128906 C 179.636719 179.488281 179.65625 180.925781 179.769531 182.355469 C 179.878906 183.792969 180.195312 185.246094 180.675781 186.605469 C 181.679688 189.304688 183.210938 191.679688 183.253906 194.554688 L 183.359375 194.570312 " fill-opacity="1" fill-rule="nonzero"/><path fill="#545454" d="M 184.457031 193.25 C 184.535156 191.371094 184.769531 189.636719 185.195312 187.902344 C 185.347656 187.027344 185.644531 186.167969 185.921875 185.242188 C 186.222656 184.308594 186.066406 183.28125 185.820312 182.378906 C 185.597656 181.453125 185.339844 180.621094 185.4375 179.828125 C 185.523438 179.023438 185.871094 178.253906 186.285156 177.472656 C 186.6875 176.683594 187.171875 175.890625 187.5625 175.019531 C 187.945312 174.152344 188.253906 173.195312 188.210938 172.234375 L 188.105469 172.21875 C 187.472656 173.972656 186.210938 175.230469 185.25 176.90625 C 184.769531 177.734375 184.414062 178.726562 184.398438 179.777344 C 184.34375 180.859375 184.851562 181.789062 185.25 182.585938 C 185.660156 183.390625 185.929688 184.289062 185.578125 185.132812 C 185.429688 185.550781 185.179688 185.9375 184.941406 186.34375 C 184.707031 186.761719 184.492188 187.191406 184.308594 187.640625 C 183.671875 189.449219 183.660156 191.496094 184.34375 193.269531 L 184.457031 193.25 " fill-opacity="1" fill-rule="nonzero"/><path fill="#545454" d="M 181.976562 191.777344 C 181.691406 191.65625 181.410156 191.578125 181.125 191.511719 L 181.394531 191.765625 C 181.445312 191.109375 181.203125 190.425781 180.8125 189.898438 C 180.441406 189.351562 179.914062 188.988281 179.367188 188.722656 C 178.25 188.25 177.253906 187.601562 176.59375 186.652344 C 175.902344 185.757812 175.347656 184.820312 174.863281 183.832031 C 174.367188 182.851562 173.984375 181.820312 173.605469 180.671875 L 173.492188 180.671875 C 173.191406 181.867188 173.351562 183.15625 173.804688 184.308594 C 174.28125 185.460938 175.085938 186.472656 176.078125 187.195312 C 177.109375 187.886719 178.183594 188.371094 178.9375 189.300781 C 179.710938 190.183594 180.507812 190.78125 180.832031 191.824219 L 180.917969 192.105469 L 181.101562 192.074219 C 181.390625 192.03125 181.679688 191.980469 181.96875 191.886719 L 181.976562 191.777344 " fill-opacity="1" fill-rule="nonzero"/><path fill="#545454" d="M 185.105469 195.742188 C 180.75 194.386719 176.699219 192.121094 173.347656 189.089844 C 171.683594 187.566406 170.136719 185.902344 168.835938 184.054688 C 167.527344 182.222656 166.46875 180.226562 165.519531 178.15625 C 164.546875 176.09375 163.621094 173.988281 162.527344 171.949219 C 161.433594 169.90625 160.15625 168.007812 159.113281 165.992188 C 158.066406 163.992188 157.21875 161.867188 157.015625 159.613281 C 156.796875 157.386719 157.242188 155.035156 158.589844 153.234375 L 158.550781 153.273438 C 158.875 153.015625 159.273438 153.296875 159.507812 153.699219 C 159.738281 154.089844 159.875 154.550781 159.898438 155.011719 L 160.089844 157.945312 C 160.226562 159.898438 160.351562 161.859375 160.457031 163.8125 L 160.582031 166.144531 L 160.949219 163.828125 L 161.921875 157.722656 L 161.613281 158.015625 C 163.371094 157.886719 165.136719 158.085938 166.820312 158.566406 L 167.230469 158.683594 L 167.347656 158.273438 C 168.066406 155.789062 168.835938 153.273438 170.484375 151.429688 C 171.300781 150.523438 172.328125 149.792969 173.464844 149.449219 C 174.59375 149.089844 175.800781 149.195312 176.878906 149.695312 C 177.960938 150.191406 178.898438 151.023438 179.703125 151.960938 C 180.507812 152.902344 181.195312 153.992188 181.90625 155.085938 C 182.617188 156.183594 183.367188 157.304688 184.308594 158.292969 C 185.257812 159.285156 186.335938 160.070312 187.347656 160.867188 C 189.339844 162.449219 191.019531 164.351562 192.21875 166.601562 C 193.421875 168.832031 194.171875 171.3125 194.464844 173.851562 C 195.070312 178.902344 193.832031 184.304688 190.539062 188.359375 L 190.621094 188.433594 C 192.382812 186.5 193.6875 184.144531 194.464844 181.617188 C 195.230469 179.09375 195.496094 176.414062 195.277344 173.769531 C 194.835938 168.503906 192.324219 163.261719 188.042969 159.980469 C 187.015625 159.167969 185.984375 158.402344 185.136719 157.503906 C 184.289062 156.605469 183.582031 155.546875 182.882812 154.457031 C 182.175781 153.367188 181.496094 152.230469 180.589844 151.199219 C 179.691406 150.183594 178.636719 149.25 177.335938 148.671875 C 176.050781 148.085938 174.496094 147.96875 173.148438 148.429688 C 171.789062 148.863281 170.636719 149.722656 169.726562 150.75 C 167.886719 152.863281 167.199219 155.546875 166.519531 158.039062 L 167.046875 157.738281 C 165.257812 157.257812 163.382812 157.132812 161.550781 157.328125 L 161.273438 157.355469 L 161.238281 157.625 L 160.457031 163.757812 L 160.953125 163.777344 C 160.777344 161.824219 160.621094 159.871094 160.472656 157.917969 L 160.242188 154.988281 C 160.210938 154.472656 160.0625 153.960938 159.789062 153.519531 C 159.648438 153.304688 159.484375 153.078125 159.226562 152.933594 C 158.96875 152.777344 158.582031 152.804688 158.351562 152.976562 L 158.324219 153 L 158.3125 153.015625 C 156.859375 154.890625 156.382812 157.34375 156.546875 159.652344 C 156.675781 161.992188 157.476562 164.238281 158.472656 166.3125 C 159.480469 168.402344 160.65625 170.378906 161.707031 172.382812 C 162.761719 174.386719 163.632812 176.496094 164.621094 178.578125 C 166.546875 182.761719 169.277344 186.699219 172.859375 189.65625 C 176.382812 192.660156 180.609375 194.8125 185.078125 195.851562 L 185.105469 195.742188 " fill-opacity="1" fill-rule="nonzero"/><path fill="#545454" d="M 177.824219 149.136719 C 178.164062 148.0625 179.164062 147.5625 180.121094 147.429688 C 180.605469 147.371094 181.101562 147.390625 181.546875 147.527344 C 181.988281 147.671875 182.453125 147.898438 182.871094 148.175781 C 183.738281 148.71875 184.550781 149.488281 185.214844 150.363281 C 185.882812 151.246094 186.449219 152.203125 186.988281 153.171875 C 187.511719 154.152344 188.046875 155.121094 188.613281 156.0625 L 190.214844 158.9375 C 191.308594 160.832031 192.324219 162.753906 193.324219 164.757812 L 193.433594 164.722656 C 193.09375 162.5 192.289062 160.355469 191.25 158.367188 C 190.171875 156.402344 188.910156 154.550781 187.488281 152.835938 C 186.789062 151.964844 186.113281 151.09375 185.511719 150.15625 C 184.902344 149.226562 184.339844 148.21875 183.421875 147.429688 C 182.957031 147.046875 182.429688 146.746094 181.804688 146.578125 C 181.1875 146.414062 180.550781 146.4375 179.953125 146.585938 C 179.355469 146.730469 178.785156 147.039062 178.359375 147.484375 C 177.925781 147.921875 177.679688 148.550781 177.714844 149.125 L 177.824219 149.136719 " fill-opacity="1" fill-rule="nonzero"/><path fill="#545454" d="M 199.089844 156.949219 C 198.6875 157.96875 198.429688 158.902344 198.246094 159.886719 C 198.171875 160.382812 198.175781 160.921875 198.015625 161.40625 C 197.855469 161.898438 197.566406 162.328125 197.238281 162.722656 C 196.550781 163.492188 195.921875 164.246094 195.246094 164.964844 C 194.605469 165.71875 193.941406 166.449219 193.269531 167.300781 L 193.328125 167.394531 C 194.398438 167.140625 195.339844 166.53125 196.109375 165.777344 C 196.84375 164.980469 197.441406 164.054688 197.769531 163.019531 C 197.941406 162.507812 198.101562 162.011719 198.347656 161.546875 C 198.574219 161.078125 198.917969 160.632812 199.132812 160.132812 C 199.503906 159.128906 199.5625 158 199.199219 156.949219 L 199.089844 156.949219 " fill-opacity="1" fill-rule="nonzero"/><path fill="#545454" d="M 197.933594 162.410156 C 198.21875 164.210938 198.410156 165.910156 198.65625 167.667969 C 198.816406 168.535156 199.015625 169.421875 199.085938 170.316406 C 199.152344 171.210938 199.097656 172.109375 198.988281 172.996094 C 198.738281 174.765625 198.527344 176.5 197.996094 178.125 C 197.507812 179.761719 196.785156 181.3125 195.628906 182.699219 L 195.699219 182.785156 C 197.34375 181.921875 198.511719 180.25 199.121094 178.488281 C 199.421875 177.59375 199.5625 176.667969 199.640625 175.746094 C 199.730469 174.828125 199.691406 173.910156 199.597656 173.003906 C 199.515625 172.101562 199.429688 171.207031 199.445312 170.308594 C 199.457031 169.40625 199.578125 168.496094 199.574219 167.585938 C 199.503906 165.777344 199.046875 163.914062 198.03125 162.371094 L 197.933594 162.410156 " fill-opacity="1" fill-rule="nonzero"/><path fill="#545454" d="M 192.375 176.441406 C 192.054688 177.351562 191.910156 178.179688 191.878906 179.050781 C 191.886719 179.484375 191.976562 179.949219 191.910156 180.386719 C 191.847656 180.824219 191.65625 181.230469 191.421875 181.613281 C 190.929688 182.367188 190.515625 183.109375 190.078125 183.84375 C 189.691406 184.609375 189.300781 185.363281 188.972656 186.261719 L 189.054688 186.339844 C 189.917969 185.910156 190.585938 185.222656 191.101562 184.445312 C 191.570312 183.640625 191.90625 182.75 192 181.8125 C 192.050781 181.351562 192.113281 180.898438 192.261719 180.46875 C 192.398438 180.039062 192.65625 179.625 192.792969 179.175781 C 193.003906 178.273438 192.929688 177.304688 192.484375 176.433594 L 192.375 176.441406 " fill-opacity="1" fill-rule="nonzero"/><path fill="#545454" d="M 188.851562 207.027344 C 187.824219 205.234375 186.351562 203.683594 184.628906 202.480469 C 182.914062 201.277344 180.882812 200.484375 178.859375 200.042969 C 177.859375 199.820312 176.878906 199.625 175.960938 199.296875 C 175.046875 198.960938 174.179688 198.492188 173.375 197.894531 C 171.761719 196.710938 170.421875 195.128906 169.121094 193.550781 C 167.839844 191.960938 166.453125 190.378906 164.800781 189.125 C 163.222656 187.84375 161.492188 186.613281 160.800781 184.871094 C 160.417969 184.046875 160.515625 183.019531 160.109375 181.886719 C 159.695312 180.800781 158.957031 179.949219 158.25 179.1875 C 157.523438 178.433594 156.816406 177.761719 156.324219 176.960938 C 155.808594 176.179688 155.523438 175.296875 155.699219 174.488281 L 155.074219 174.90625 C 157.015625 175.160156 158.894531 175.882812 160.582031 176.925781 C 161.445312 177.4375 162.175781 178.085938 162.992188 178.746094 C 163.414062 179.058594 163.859375 179.351562 164.371094 179.53125 C 164.867188 179.726562 165.480469 179.714844 165.933594 179.433594 L 165.882812 179.335938 C 164.914062 179.722656 164.007812 179.023438 163.308594 178.367188 C 162.605469 177.683594 161.855469 176.90625 161.003906 176.296875 C 159.320312 175.050781 157.332031 174.210938 155.253906 173.8125 L 154.753906 173.710938 L 154.625 174.226562 C 154.320312 175.445312 154.742188 176.667969 155.324219 177.589844 C 155.90625 178.550781 156.714844 179.292969 157.402344 180.007812 C 158.109375 180.71875 158.753906 181.445312 159.089844 182.285156 C 159.4375 183.074219 159.386719 184.199219 159.878906 185.261719 C 160.859375 187.359375 162.785156 188.476562 164.4375 189.613281 C 165.28125 190.191406 166.085938 190.789062 166.808594 191.5 C 167.535156 192.21875 168.203125 192.984375 168.867188 193.769531 C 170.175781 195.335938 171.367188 197.03125 172.953125 198.425781 C 173.738281 199.117188 174.636719 199.722656 175.625 200.15625 C 176.621094 200.578125 177.652344 200.800781 178.644531 201.019531 C 182.605469 201.710938 186.164062 203.921875 188.761719 207.09375 L 188.851562 207.027344 " fill-opacity="1" fill-rule="nonzero"/><path fill="#545454" d="M 163.402344 182.292969 C 163.199219 182.9375 163.203125 183.464844 163.371094 183.984375 C 163.480469 184.238281 163.6875 184.492188 163.742188 184.765625 C 163.808594 185.035156 163.753906 185.316406 163.65625 185.589844 C 163.441406 186.140625 163.34375 186.65625 163.269531 187.1875 C 163.261719 187.441406 163.25 187.742188 163.292969 187.980469 C 163.3125 188.054688 163.3125 188.167969 163.308594 188.269531 C 163.285156 188.355469 163.34375 188.472656 163.183594 188.488281 L 163.113281 188.578125 C 163.179688 188.804688 163.578125 188.769531 163.722656 188.65625 C 163.90625 188.546875 164.039062 188.402344 164.136719 188.203125 C 164.292969 187.898438 164.375 187.644531 164.441406 187.34375 C 164.515625 186.761719 164.492188 186.160156 164.261719 185.585938 C 164.164062 185.300781 164.082031 185.019531 164.101562 184.734375 C 164.113281 184.449219 164.257812 184.144531 164.28125 183.84375 C 164.277344 183.253906 164.035156 182.6875 163.503906 182.261719 L 163.402344 182.292969 " fill-opacity="1" fill-rule="nonzero"/><g clip-path="url(#405c3b62e6)"><path fill="#545454" d="M 206.820312 222.207031 C 206.183594 221.027344 204.910156 220.390625 203.726562 219.925781 C 202.515625 219.460938 201.324219 219.070312 200.171875 218.535156 C 197.847656 217.488281 195.789062 216.082031 193.726562 214.527344 C 192.679688 213.777344 191.535156 213.046875 190.214844 212.664062 C 188.894531 212.273438 187.488281 212.304688 186.191406 212.582031 C 183.542969 213.113281 181.304688 214.554688 179.097656 215.773438 C 174.703125 218.304688 169.433594 219.097656 164.378906 218.628906 C 159.285156 218.203125 154.390625 216.65625 149.484375 215.246094 L 149.417969 216.160156 C 151.320312 215.945312 153.183594 215.414062 154.925781 214.609375 C 156.675781 213.820312 158.25 212.675781 159.714844 211.519531 C 161.191406 210.378906 162.589844 209.175781 164.167969 208.332031 C 165.734375 207.476562 167.484375 206.984375 169.273438 206.761719 C 172.878906 206.300781 176.566406 206.863281 180.195312 207.601562 C 183.828125 208.3125 187.539062 209.132812 191.289062 209.03125 L 191.289062 208.921875 C 187.5625 208.722656 183.984375 207.703125 180.363281 206.828125 C 176.746094 205.957031 172.96875 205.238281 169.140625 205.652344 C 167.238281 205.871094 165.339844 206.394531 163.621094 207.3125 C 161.90625 208.234375 160.429688 209.445312 158.996094 210.617188 C 157.5625 211.792969 156.109375 212.878906 154.472656 213.648438 C 152.84375 214.433594 151.09375 214.96875 149.300781 215.234375 L 147.046875 215.570312 L 149.238281 216.144531 C 154.179688 217.457031 159.21875 218.648438 164.355469 219.011719 C 169.453125 219.328125 174.765625 218.804688 179.433594 216.429688 C 181.75 215.308594 183.957031 214 186.375 213.535156 C 187.574219 213.316406 188.804688 213.285156 189.957031 213.589844 C 191.109375 213.898438 192.179688 214.542969 193.21875 215.253906 C 194.253906 215.972656 195.300781 216.765625 196.429688 217.410156 C 197.554688 218.054688 198.726562 218.628906 199.925781 219.109375 C 201.121094 219.609375 202.378906 219.964844 203.589844 220.316406 C 204.78125 220.695312 206.003906 221.203125 206.726562 222.265625 L 206.820312 222.207031 " fill-opacity="1" fill-rule="nonzero"/></g><path fill="#545454" d="M 168.90625 214.152344 C 168.925781 213.8125 169.457031 213.878906 169.765625 213.933594 C 170.203125 214.003906 170.660156 214.015625 171.105469 213.949219 C 171.996094 213.8125 172.828125 213.457031 173.53125 212.984375 C 174.238281 212.5 174.839844 211.910156 175.535156 211.460938 C 176.226562 211.011719 177.003906 210.722656 177.804688 210.539062 C 179.402344 210.222656 181.039062 209.839844 182.613281 209.496094 C 184.179688 209.136719 185.714844 208.851562 187.371094 209.140625 L 187.414062 209.042969 C 185.960938 208.050781 184.023438 208.027344 182.375 208.332031 C 181.527344 208.492188 180.726562 208.761719 179.9375 209.019531 C 179.144531 209.265625 178.355469 209.578125 177.597656 209.96875 C 176.835938 210.34375 176.097656 210.761719 175.355469 211.148438 C 174.613281 211.53125 173.828125 211.851562 173.082031 212.179688 C 172.347656 212.519531 171.65625 212.882812 170.925781 213.109375 C 170.554688 213.21875 170.183594 213.289062 169.792969 213.34375 C 169.546875 213.355469 169.316406 213.425781 169.101562 213.542969 C 168.992188 213.601562 168.886719 213.675781 168.804688 213.796875 C 168.714844 213.914062 168.730469 214.097656 168.800781 214.191406 L 168.90625 214.152344 " fill-opacity="1" fill-rule="nonzero"/><path fill="#545454" d="M 162.421875 215.460938 C 161.667969 214.917969 160.726562 214.796875 159.886719 214.953125 C 159.46875 215.0625 159.070312 215.28125 158.65625 215.375 C 158.25 215.46875 157.832031 215.457031 157.40625 215.40625 C 156.5625 215.285156 155.765625 215.285156 154.996094 215.226562 L 153.800781 215.199219 C 153.378906 215.195312 152.898438 215.234375 152.476562 215.433594 L 152.480469 215.542969 C 153.273438 215.871094 153.960938 216.296875 154.90625 216.40625 C 155.800781 216.464844 156.675781 216.332031 157.480469 216.015625 C 157.886719 215.867188 158.289062 215.742188 158.707031 215.730469 C 159.121094 215.707031 159.554688 215.84375 159.960938 215.871094 C 160.78125 215.898438 161.519531 215.785156 162.402344 215.570312 L 162.421875 215.460938 " fill-opacity="1" fill-rule="nonzero"/><g fill="#000000" fill-opacity="1"><g transform="translate(110.690783, 119.898049)"><g><path d="M 3.6875 -2.058594 C 5.609375 -3.355469 6.035156 -5.242188 4.757812 -7.140625 L 0.242188 -13.839844 L -1.429688 -12.714844 L 3.003906 -6.132812 C 3.757812 -5.019531 3.65625 -4.023438 2.710938 -3.390625 C 1.757812 -2.746094 0.679688 -2.945312 -0.207031 -3.914062 L -1.28125 -2.417969 C 0.09375 -1.007812 1.894531 -0.851562 3.6875 -2.058594 Z M 3.6875 -2.058594 "/></g></g></g><g fill="#000000" fill-opacity="1"><g transform="translate(128.455313, 109.037286)"><g><path d="M 5.28125 -1.945312 C 7.953125 -3.148438 8.921875 -5.621094 7.753906 -8.21875 L 4.859375 -14.632812 L 3.035156 -13.8125 L 5.917969 -7.425781 C 6.652344 -5.792969 6.148438 -4.230469 4.574219 -3.519531 C 2.984375 -2.800781 1.445312 -3.566406 0.753906 -5.097656 L -2.125 -11.484375 L -3.949219 -10.660156 L -1.054688 -4.246094 C 0.117188 -1.648438 2.601562 -0.734375 5.28125 -1.945312 Z M 5.28125 -1.945312 "/></g></g></g><g fill="#000000" fill-opacity="1"><g transform="translate(150.13099, 100.435103)"><g><path d="M 0.898438 -0.222656 L 2.761719 -0.6875 L 0.621094 -9.289062 L 0.648438 -9.296875 L 7.886719 -1.964844 L 10.261719 -2.558594 L 7.515625 -13.5625 L 5.636719 -13.09375 L 7.789062 -4.464844 L 7.757812 -4.457031 L 0.53125 -11.820312 L -1.84375 -11.230469 Z M 0.898438 -0.222656 "/></g></g></g><g fill="#000000" fill-opacity="1"><g transform="translate(173.292032, 95.834239)"><g><path d="M 0.925781 -0.0664062 L 8.917969 -0.644531 L 8.800781 -2.300781 L 2.71875 -1.863281 L 2.476562 -5.261719 L 7.757812 -5.644531 L 7.648438 -7.160156 L 2.367188 -6.777344 L 2.144531 -9.859375 L 8.0625 -10.285156 L 7.945312 -11.945312 L 0.109375 -11.378906 Z M 0.925781 -0.0664062 "/></g></g></g><g fill="#000000" fill-opacity="1"><g transform="translate(194.815075, 95.360103)"><g/></g></g><g fill="#000000" fill-opacity="1"><g transform="translate(210.890647, 97.179703)"><g><path d="M 0.125 0.0273438 L 2.167969 0.492188 L 3.59375 -1.726562 L 8.410156 -0.628906 L 8.71875 1.984375 L 10.761719 2.449219 L 9.160156 -9.546875 L 6.789062 -10.085938 Z M 4.355469 -3.144531 L 7.578125 -8.136719 L 7.609375 -8.128906 L 8.320312 -2.242188 Z M 4.355469 -3.144531 "/></g></g></g><g fill="#000000" fill-opacity="1"><g transform="translate(233.306245, 103.371225)"><g><path d="M 9.410156 1.636719 C 10.203125 1.242188 10.957031 0.695312 11.6875 0.0507812 L 11.011719 -1.386719 C 10.324219 -0.671875 9.570312 -0.0859375 8.792969 0.3125 L 7.289062 -2.976562 C 9.484375 -2.855469 10.664062 -3.378906 11.210938 -4.65625 C 11.957031 -6.410156 10.957031 -7.933594 9.261719 -8.65625 C 7.46875 -9.421875 5.667969 -8.832031 4.972656 -7.199219 C 4.578125 -6.324219 4.6875 -5.355469 4.960938 -4.527344 C 3.148438 -4.480469 2.105469 -3.867188 1.527344 -2.515625 C 0.746094 -0.691406 1.738281 1.144531 3.871094 2.054688 C 5.121094 2.589844 6.542969 2.601562 7.949219 2.160156 L 8.664062 3.699219 L 10.753906 4.59375 Z M 8.714844 -7.289062 C 9.566406 -6.925781 10.015625 -6.019531 9.648438 -5.203125 C 9.324219 -4.4375 8.4375 -4.15625 6.707031 -4.300781 C 6.363281 -5.125 6.296875 -5.867188 6.542969 -6.476562 C 6.917969 -7.359375 7.832031 -7.667969 8.714844 -7.289062 Z M 4.640625 0.78125 C 3.390625 0.246094 2.785156 -0.863281 3.214844 -1.863281 C 3.609375 -2.789062 4.304688 -3.152344 5.554688 -3.105469 L 7.328125 0.800781 C 6.410156 1.121094 5.507812 1.152344 4.640625 0.78125 Z M 4.640625 0.78125 "/></g></g></g><g fill="#000000" fill-opacity="1"><g transform="translate(254.714662, 113.723927)"><g><path d="M 0.105469 0.0703125 L 1.855469 1.226562 L 3.96875 -0.351562 L 8.09375 2.375 L 7.460938 4.929688 L 9.210938 6.082031 L 11.9375 -5.710938 L 9.90625 -7.050781 Z M 5.183594 -1.40625 L 9.957031 -4.945312 L 9.984375 -4.929688 L 8.574219 0.832031 Z M 5.183594 -1.40625 "/></g></g></g><g fill="#000000" fill-opacity="1"><g transform="translate(106.330208, 261.888661)"><g><path d="M 3.292969 2.644531 C 5.214844 3.9375 7.125 3.625 8.402344 1.726562 L 12.917969 -4.972656 L 11.246094 -6.101562 L 6.8125 0.480469 C 6.0625 1.59375 5.101562 1.875 4.160156 1.242188 C 3.203125 0.597656 2.984375 -0.476562 3.546875 -1.660156 L 1.757812 -2.09375 C 0.96875 -0.292969 1.5 1.4375 3.292969 2.644531 Z M 3.292969 2.644531 "/></g></g></g><g fill="#000000" fill-opacity="1"><g transform="translate(125.245819, 273.390752)"><g><path d="M 4.953125 2.671875 C 7.621094 3.878906 10.121094 2.96875 11.292969 0.375 L 14.1875 -6.042969 L 12.363281 -6.867188 L 9.480469 -0.476562 C 8.746094 1.15625 7.238281 1.808594 5.664062 1.097656 C 4.074219 0.382812 3.628906 -1.277344 4.320312 -2.808594 L 7.203125 -9.195312 L 5.378906 -10.015625 L 2.484375 -3.601562 C 1.3125 -1.003906 2.269531 1.464844 4.953125 2.671875 Z M 4.953125 2.671875 "/></g></g></g><g fill="#000000" fill-opacity="1"><g transform="translate(148.243112, 282.451626)"><g><path d="M 0.898438 0.222656 L 2.761719 0.6875 L 4.90625 -7.910156 L 4.9375 -7.902344 L 7.886719 1.964844 L 10.261719 2.558594 L 13.003906 -8.449219 L 11.125 -8.914062 L 8.972656 -0.285156 L 8.941406 -0.292969 L 6.019531 -10.1875 L 3.644531 -10.78125 Z M 0.898438 0.222656 "/></g></g></g><g fill="#000000" fill-opacity="1"><g transform="translate(172.730956, 287.264064)"><g><path d="M 0.925781 0.0664062 L 8.917969 0.644531 L 9.039062 -1.015625 L 2.960938 -1.453125 L 3.203125 -4.851562 L 8.484375 -4.472656 L 8.59375 -5.988281 L 3.3125 -6.371094 L 3.535156 -9.449219 L 9.457031 -9.023438 L 9.574219 -10.679688 L 1.742188 -11.246094 Z M 0.925781 0.0664062 "/></g></g></g><g fill="#000000" fill-opacity="1"><g transform="translate(195.379851, 287.737918)"><g/></g></g><g fill="#000000" fill-opacity="1"><g transform="translate(212.622015, 285.744345)"><g><path d="M 0.125 -0.0273438 L 2.167969 -0.492188 L 2.492188 -3.109375 L 7.3125 -4.207031 L 8.71875 -1.984375 L 10.761719 -2.449219 L 4.128906 -12.570312 L 1.757812 -12.03125 Z M 2.570312 -4.71875 L 3.3125 -10.613281 L 3.34375 -10.621094 L 6.53125 -5.621094 Z M 2.570312 -4.71875 "/></g></g></g><g fill="#000000" fill-opacity="1"><g transform="translate(236.371844, 279.120012)"><g><path d="M 7.6875 -5.667969 C 7.953125 -6.511719 8.078125 -7.433594 8.117188 -8.40625 L 6.613281 -8.914062 C 6.652344 -7.921875 6.554688 -6.972656 6.304688 -6.136719 L 2.890625 -7.324219 C 4.492188 -8.824219 4.933594 -10.039062 4.386719 -11.320312 C 3.636719 -13.070312 1.84375 -13.398438 0.152344 -12.675781 C -1.644531 -11.910156 -2.460938 -10.203125 -1.765625 -8.570312 C -1.402344 -7.679688 -0.628906 -7.089844 0.160156 -6.714844 C -1.058594 -5.375 -1.339844 -4.195312 -0.761719 -2.839844 C 0.0195312 -1.015625 2.027344 -0.464844 4.160156 -1.378906 C 5.410156 -1.910156 6.402344 -2.925781 7.058594 -4.25 L 8.664062 -3.699219 L 10.753906 -4.59375 Z M 0.757812 -11.335938 C 1.613281 -11.699219 2.578125 -11.398438 2.914062 -10.570312 C 3.242188 -9.804688 2.832031 -8.96875 1.53125 -7.820312 C 0.695312 -8.144531 0.117188 -8.609375 -0.15625 -9.203125 C -0.535156 -10.085938 -0.125 -10.957031 0.757812 -11.335938 Z M 3.773438 -2.8125 C 2.523438 -2.277344 1.304688 -2.609375 0.875 -3.609375 C 0.480469 -4.535156 0.699219 -5.289062 1.59375 -6.160156 L 5.644531 -4.742188 C 5.242188 -3.855469 4.640625 -3.183594 3.773438 -2.8125 Z M 3.773438 -2.8125 "/></g></g></g><g fill="#000000" fill-opacity="1"><g transform="translate(259.015451, 268.102657)"><g><path d="M 0.105469 -0.0703125 L 1.855469 -1.226562 L 1.238281 -3.789062 L 5.363281 -6.511719 L 7.460938 -4.929688 L 9.210938 -6.082031 L -0.5625 -13.21875 L -2.59375 -11.878906 Z M 0.742188 -5.320312 L -0.640625 -11.101562 L -0.613281 -11.117188 L 4.132812 -7.558594 Z M 0.742188 -5.320312 "/></g></g></g></svg>